<?xml version="1.0" encoding="utf-8"?>
<!-- Generator: Adobe Illustrator 22.0.0, SVG Export Plug-In . SVG Version: 6.00 Build 0)  -->
<svg version="1.1" id="Layer_1" xmlns="http://www.w3.org/2000/svg" xmlns:xlink="http://www.w3.org/1999/xlink" x="0px" y="0px"
	 viewBox="0 0 512 512" style="enable-background:new 0 0 512 512;" xml:space="preserve">
<style type="text/css">
	.st0{fill:#FFFFFF;}
</style>
<g>
	<g>
		<path class="st0" d="M504,224c-4.1-2.6-36.4-21.9-49.2-27.8l-15.9-38.4c4.7-12.7,13.8-48.3,15.2-54.5c1.3-5.7-0.4-11.7-4.6-15.9
			l-24.9-24.9c-4.2-4.2-10.1-5.9-15.9-4.6c-4.7,1.1-41.2,10.2-54.5,15.2l-38.4-15.9C310.2,45,291.5,13.4,288,8c-3.1-5-8.6-8-14.5-8
			h-35.2c-5.9,0-11.3,3-14.5,8c-2.6,4.1-21.9,36.4-27.8,49.2l-38.4,15.9c-12.7-4.7-48.3-13.8-54.5-15.2c-5.7-1.3-11.7,0.4-15.9,4.6
			L62.5,87.4c-4.2,4.2-5.9,10.1-4.6,15.9c1.1,4.7,10.2,41.2,15.2,54.5l-15.9,38.4C45,201.8,13.4,220.5,8,224c-5,3.1-8,8.6-8,14.5
			v35.2c0,5.9,3,11.3,8,14.5c4.1,2.6,36.4,21.9,49.2,27.8l15.9,38.4c-4.7,12.7-13.8,48.3-15.2,54.5c-1.3,5.7,0.4,11.7,4.6,15.9
			l24.9,24.9c4.2,4.2,10.1,5.9,15.9,4.6c4.7-1.1,41.2-10.2,54.5-15.2l38.4,15.9c5.6,12.3,24.4,43.8,27.8,49.2c3.1,5,8.6,8,14.5,8
			h35.2c5.9,0,11.3-3,14.5-8c2.6-4.1,21.9-36.4,27.8-49.2l38.4-15.9c12.7,4.7,48.3,13.8,54.5,15.2c5.7,1.3,11.7-0.4,15.9-4.6
			l24.9-24.9c4.2-4.2,5.9-10.1,4.6-15.9c-1.1-4.7-10.2-41.2-15.2-54.5l15.9-38.4c12.3-5.6,43.8-24.4,49.2-27.8c5-3.1,8-8.6,8-14.5
			v-35.2C512,232.5,509,227.1,504,224z M256,367.6c-61.5,0-111.6-50.1-111.6-111.6S194.5,144.4,256,144.4S367.6,194.5,367.6,256
			S317.5,367.6,256,367.6z"/>
	</g>
</g>
</svg>
